<?xml version="1.0" encoding="UTF-8" standalone="no"?>
<svg
   xmlns:dc="http://purl.org/dc/elements/1.1/"
   xmlns:cc="http://creativecommons.org/ns#"
   xmlns:rdf="http://www.w3.org/1999/02/22-rdf-syntax-ns#"
   xmlns:svg="http://www.w3.org/2000/svg"
   xmlns="http://www.w3.org/2000/svg"
   xmlns:sodipodi="http://sodipodi.sourceforge.net/DTD/sodipodi-0.dtd"
   xmlns:inkscape="http://www.inkscape.org/namespaces/inkscape"
   version="1.1"
   id="svg2"
   viewBox="0 0 552.04103 552.04103"
   height="155.79825mm"
   width="155.79825mm"
   inkscape:version="0.91 r13725"
   sodipodi:docname="logo-white.svg">
  <sodipodi:namedview
     pagecolor="#ffffff"
     bordercolor="#666666"
     borderopacity="1"
     objecttolerance="10"
     gridtolerance="10"
     guidetolerance="10"
     inkscape:pageopacity="0"
     inkscape:pageshadow="2"
     inkscape:window-width="1916"
     inkscape:window-height="1041"
     id="namedview5631"
     showgrid="false"
     inkscape:zoom="0.42750445"
     inkscape:cx="-70.174708"
     inkscape:cy="445.05969"
     inkscape:window-x="1280"
     inkscape:window-y="18"
     inkscape:window-maximized="0"
     inkscape:current-layer="svg2" />
  <defs
     id="defs4" />
  <metadata
     id="metadata7">
    <rdf:RDF>
      <cc:Work
         rdf:about="">
        <dc:format>image/svg+xml</dc:format>
        <dc:type
           rdf:resource="http://purl.org/dc/dcmitype/StillImage" />
        <dc:title />
      </cc:Work>
    </rdf:RDF>
  </metadata>
  <path
     inkscape:connector-curvature="0"
     id="path4147"
     d="M 276.01953,1.7249317e-5 A 276.02036,276.02036 0 0 0 0,276.02151 276.02036,276.02036 0 0 0 276.01953,552.04104 276.02036,276.02036 0 0 0 552.04102,276.02151 276.02036,276.02036 0 0 0 276.01953,1.7249317e-5 Z M 326.49414,141.40041 l 55.46094,0 -79.01562,136.86133 81.02734,140.34375 -55.34766,0 -53.19531,-92.13476 -53.28125,92.2871 -55.08008,0 81.23242,-140.70117 -79.85546,-136.48437 55.26757,0 51.34375,88.92968 51.44336,-89.10156 z"
     style="opacity:1;fill:#ffffff;fill-opacity:1;stroke:none;stroke-width:4.6062994;stroke-linecap:square;stroke-linejoin:miter;stroke-miterlimit:4;stroke-dasharray:none;stroke-opacity:1" />
</svg>
