<?xml version="1.0" encoding="UTF-8" standalone="no"?>
<svg
   xmlns:sketch="http://www.bohemiancoding.com/sketch/ns"
   xmlns:osb="http://www.openswatchbook.org/uri/2009/osb"
   xmlns:dc="http://purl.org/dc/elements/1.1/"
   xmlns:cc="http://creativecommons.org/ns#"
   xmlns:rdf="http://www.w3.org/1999/02/22-rdf-syntax-ns#"
   xmlns:svg="http://www.w3.org/2000/svg"
   xmlns="http://www.w3.org/2000/svg"
   xmlns:sodipodi="http://sodipodi.sourceforge.net/DTD/sodipodi-0.dtd"
   xmlns:inkscape="http://www.inkscape.org/namespaces/inkscape"
   version="1.1"
   id="Ebene_1"
   x="0px"
   y="0px"
   width="200"
   height="200"
   viewbox="0 0 320 320"
   enable-background="new 0 0 320 320"
   xml:space="preserve"
   inkscape:version="0.91 r13725"
   sodipodi:docname="logo-scuba-favicon.svg"
   inkscape:export-filename="/home/will/local/xsacdb/src/static_global/icons/favicon-16x16.png"
   inkscape:export-xdpi="22.736841"
   inkscape:export-ydpi="22.736841"><metadata
     id="metadata11"><rdf:RDF><cc:Work
         rdf:about=""><dc:format>image/svg+xml</dc:format><dc:type
           rdf:resource="http://purl.org/dc/dcmitype/StillImage" /><dc:title>Rounded Corners</dc:title></cc:Work></rdf:RDF></metadata><defs
     id="defs9"><linearGradient
       id="linearGradient5583"
       osb:paint="solid"><stop
         style="stop-color:#013b6c;stop-opacity:1;"
         offset="0"
         id="stop5585" /></linearGradient><clipPath
       clipPathUnits="userSpaceOnUse"
       id="clipPath4192"><g
         id="g4194"
         transform="translate(0,2.1)"
         style="opacity:0.9"><path
           inkscape:connector-curvature="0"
           d="m 232.53466,147.73301 2.59056,-8.97307 -9.4519,-1.41772 c 0.32359,0.0486 0.57055,0.13982 0.71378,0.22496 -0.0411,-0.0244 -0.1703,-0.1315 -0.36244,-0.33851 -0.69401,-0.74767 -1.47607,-2.03416 -2.20046,-3.76108 -1.75598,-4.18626 -2.80935,-10.02244 -2.80935,-16.32734 0,-5.22269 0.72043,-10.14305 1.99539,-14.11085 1.05877,-3.295003 2.38274,-5.529584 3.33894,-6.286628 l 4.91554,-3.891752 -2.44215,-5.695301 C 219.7865,66.08287 202.9629,49.362005 182.09446,40.828056 l -8.27572,-3.384277 -2.98323,8.250397 c -0.0235,-0.08408 -0.24572,0.125967 -0.57204,0.373472 -0.93393,0.70835 -2.35823,1.449318 -4.17472,2.116812 -4.25975,1.565307 -9.96268,2.485191 -16.08875,2.485191 -6.01456,0 -11.62379,-0.886393 -15.86532,-2.404173 -1.82528,-0.65315 -3.27714,-1.383671 -4.25973,-2.095287 -0.36033,-0.260957 -0.61797,-0.49094 -0.77466,-0.669394 -0.0414,-0.04719 -3.28213,-7.625247 -3.28213,-7.625247 l -7.87225,3.326777 C 97.264332,49.942261 80.671668,66.750588 71.839877,87.811644 l -2.168577,5.171378 4.120638,3.883112 c 2.715659,2.559122 5.193211,10.753206 5.193211,20.274126 0,6.0332 -0.963579,11.64386 -2.597261,15.8047 -0.692812,1.76452 -1.458366,3.13618 -2.181682,4.01824 -0.244751,0.29847 -0.446989,0.49502 -0.583302,0.59597 0.01946,-0.0145 -7.477643,2.2679 -7.477643,2.2679 l 2.196994,7.68429 c 4.511481,15.77953 13.265585,29.91954 25.179729,40.84401 l 1.721358,1.57837 2.311186,0.48104 c 21.153852,4.40282 35.968732,6.4902 52.915772,6.4902 16.94704,0 31.76192,-2.08738 52.91577,-6.4902 l 2.31118,-0.48104 1.72136,-1.57837 c 11.8575,-10.87252 20.58596,-24.9312 25.11605,-40.62236 z m -82.06436,38.1422 c -15.48281,0 -46.47423,-7.85859 -47.0422,-8.42181 -9.217053,-9.13998 -19.011995,-26.90383 -17.011341,-29.01586 6.191733,-6.53644 9.499084,-18.28377 9.499084,-31.29728 0,-13.56432 -7.175176,-25.812884 -6.439409,-27.191752 8.5581,-16.038356 27.302796,-32.843529 29.658756,-31.010016 6.8937,5.364968 18.31024,8.234206 30.86481,8.234206 17.66775,0 29.34694,-9.37026 31.27758,-8.219551 15.24085,9.083947 30.96795,28.326147 29.75896,30.153454 -4.50071,6.802507 -6.95238,16.996649 -6.95238,28.033659 0,18.63391 10.93502,30.02916 10.20853,31.92966 -3.71032,9.70622 -9.43677,21.18825 -16.7425,28.35843 -0.56789,0.55736 -31.59708,8.44686 -47.07989,8.44686 z m 42.32673,-59.56659 c 0,-22.78596 -18.95032,-41.257621 -42.32673,-41.257621 -23.37641,0 -42.32674,18.471661 -42.32674,41.257621 0,22.78595 18.95033,41.25761 42.32674,41.25761 23.37641,0 42.32673,-18.47166 42.32673,-41.25761 z m -67.72277,0 c 0,-13.67158 11.37019,-24.75458 25.39604,-24.75458 14.02584,0 25.39604,11.083 25.39604,24.75458 0,13.67157 -11.3702,24.75456 -25.39604,24.75456 -14.02585,0 -25.39604,-11.08299 -25.39604,-24.75456 z"
           sketch:type="MSShapeGroup"
           id="path4196"
           style="fill:#ffffff;fill-opacity:1;fill-rule:evenodd;stroke:none;stroke-width:1" /><path
           inkscape:connector-curvature="0"
           d="m 245,117.14026 c 0,-19.092329 -7.24027,-35.298189 -19.75247,-35.298189 -12.51221,0 -19.75248,16.20586 -19.75248,35.298189 0,19.09232 7.24027,35.29818 19.75248,35.29818 12.5122,0 19.75247,-16.20586 19.75247,-35.29818 z m -19.31145,21.62103 c -0.0771,-0.0353 -0.23973,-0.14855 -0.46868,-0.3653 -0.78514,-0.7433 -1.66749,-2.07755 -2.48343,-3.90387 -1.95451,-4.37479 -3.13248,-10.60848 -3.13248,-17.35186 0,-6.74339 1.17797,-12.97708 3.13248,-17.351866 0.81594,-1.826322 1.69829,-3.160569 2.48343,-3.903875 0.22895,-0.216742 0.39162,-0.330003 0.46868,-0.365295 -0.083,0.03804 -0.24736,0.0754 -0.44102,0.0754 -0.19365,0 -0.35799,-0.03735 -0.44103,-0.0754 0.0771,0.0353 0.23973,0.148545 0.46869,0.365295 0.78513,0.743306 1.66748,2.077553 2.48342,3.903875 1.95452,4.374786 3.13248,10.608476 3.13248,17.351866 0,6.74338 -1.17796,12.97707 -3.13248,17.35186 -0.81594,1.82632 -1.69829,3.16057 -2.48342,3.90387 -0.22895,0.21674 -0.39163,0.33 -0.46869,0.3653 0.083,-0.038 0.24737,-0.0754 0.44103,-0.0754 0.19364,0 0.35799,0.0374 0.44102,0.0754 z"
           sketch:type="MSShapeGroup"
           id="path4198"
           style="fill:#ffffff;fill-opacity:1;fill-rule:evenodd;stroke:none;stroke-width:1" /><path
           inkscape:connector-curvature="0"
           d="m 94.504951,117.14026 c 0,-19.092329 -7.24027,-35.298189 -19.752475,-35.298189 C 62.24027,81.842071 55,98.047931 55,117.14026 c 0,19.09232 7.24027,35.29818 19.752476,35.29818 12.512205,0 19.752475,-16.20586 19.752475,-35.29818 z m -19.311452,21.62103 c -0.07706,-0.0353 -0.239741,-0.14855 -0.468683,-0.3653 -0.785139,-0.7433 -1.667483,-2.07755 -2.483426,-3.90387 -1.954516,-4.37479 -3.132479,-10.60848 -3.132479,-17.35186 0,-6.74339 1.177963,-12.97708 3.132479,-17.351866 0.815943,-1.826322 1.698287,-3.160569 2.483426,-3.903875 0.228941,-0.216742 0.391628,-0.330003 0.468683,-0.365295 -0.08304,0.03804 -0.247373,0.0754 -0.441023,0.0754 -0.19365,0 -0.357989,-0.03735 -0.441023,-0.0754 0.07706,0.0353 0.23974,0.148545 0.468683,0.365295 0.785138,0.743306 1.667483,2.077553 2.483425,3.903875 1.954516,4.374786 3.132479,10.608476 3.132479,17.351866 0,6.74338 -1.177963,12.97707 -3.132479,17.35186 -0.815942,1.82632 -1.698287,3.16057 -2.483425,3.90387 -0.228942,0.21674 -0.391628,0.33 -0.468683,0.3653 0.08303,-0.038 0.247372,-0.0754 0.441023,-0.0754 0.19365,0 0.357989,0.0374 0.441023,0.0754 z"
           sketch:type="MSShapeGroup"
           id="path4200"
           style="fill:#ffffff;fill-opacity:1;fill-rule:evenodd;stroke:none;stroke-width:1" /><path
           inkscape:connector-curvature="0"
           d="m 150,27.290335 c -19.58707,0 -36.21287,7.057389 -36.21287,19.253554 0,12.196164 16.6258,19.253556 36.21287,19.253556 19.58707,0 36.21287,-7.057392 36.21287,-19.253556 0,-12.196165 -16.6258,-19.253554 -36.21287,-19.253554 z m 22.1813,18.82367 c -0.0362,0.07511 -0.1524,0.233687 -0.37476,0.456845 -0.76256,0.765307 -2.13139,1.625365 -4.00504,2.420698 -4.48814,1.905147 -10.88337,3.053357 -17.8015,3.053357 -6.91813,0 -13.31335,-1.14821 -17.8015,-3.053357 -1.87365,-0.795333 -3.24247,-1.655391 -4.00504,-2.420698 -0.22235,-0.223159 -0.33855,-0.381736 -0.37476,-0.456845 0.039,0.08094 0.0773,0.241125 0.0773,0.429884 0,0.188759 -0.0383,0.348947 -0.0773,0.429884 0.0362,-0.07511 0.1524,-0.233687 0.37476,-0.456845 0.76257,-0.765308 2.13139,-1.625365 4.00504,-2.420698 4.48815,-1.905147 10.88337,-3.053356 17.8015,-3.053356 6.91813,0 13.31336,1.148209 17.8015,3.053356 1.87365,0.795333 3.24248,1.65539 4.00504,2.420698 0.22235,0.223159 0.33856,0.381736 0.37476,0.456845 -0.039,-0.08094 -0.0773,-0.241125 -0.0773,-0.429884 0,-0.18876 0.0383,-0.348947 0.0773,-0.429884 z"
           sketch:type="MSShapeGroup"
           id="path4202"
           style="fill:#ffffff;fill-opacity:1;fill-rule:evenodd;stroke:none;stroke-width:1" /><path
           sodipodi:nodetypes="sssscssscssssssssscssscsssss"
           inkscape:connector-curvature="0"
           d="m 224.73828,229.32751 c 10.49502,-16.33851 14.61816,-33.10745 14.61816,-44.38534 0,-5.12639 -3.02843,-9.182 -7.90856,-10.82376 -2.97598,-1.00117 -6.32258,-1.08539 -10.66506,-0.6014 -3.08626,0.34398 -6.62109,0.96834 -11.88284,2.04467 -0.51671,0.10569 -11.05215,2.31494 -14.48163,2.99767 -16.61492,3.30762 -30.04961,5.00757 -43.94805,5.00757 -13.89844,0 -27.33313,-1.69995 -43.94805,-5.00757 -3.42948,-0.68273 -13.964922,-2.89198 -14.481629,-2.99767 -5.261758,-1.07633 -8.796587,-1.70069 -11.882848,-2.04467 -4.342476,-0.48399 -7.689078,-0.39977 -10.665061,0.6014 -4.880124,1.64176 -7.908553,5.69737 -7.908553,10.82376 0,11.27789 4.123137,28.04684 14.618158,44.38535 C 91.913186,253.78599 117.91566,268.5 150.4703,268.5 c 32.55463,0 58.55711,-14.71402 74.26798,-39.17249 z M 89.755045,221.05617 c -4.942253,-7.69403 -8.701954,-16.26485 -11.244829,-24.88997 -1.889524,-6.40903 -1.416721,-7.30295 -0.168977,-7.16388 2.464439,0.27468 5.607605,0.82985 10.415279,1.81329 0.442489,0.0905 11.038001,2.31236 14.566052,3.01471 17.57708,3.49917 31.98932,5.32281 47.14773,5.32281 15.15841,0 29.57065,-1.82364 47.14772,-5.32281 3.52806,-0.70235 14.12357,-2.92419 14.56606,-3.01471 4.80767,-0.98344 7.95084,-1.53861 10.41528,-1.81329 1.24774,-0.13908 1.72055,0.75484 -0.16898,7.16388 -2.54287,8.62512 -6.30258,17.19593 -11.24483,24.88996 -12.94599,20.15416 -34.03747,31.85763 -60.71525,31.85763 -26.67778,0 -47.76926,-11.70347 -60.715255,-31.85762 z"
           sketch:type="MSShapeGroup"
           id="path4204"
           style="fill:#ffffff;fill-opacity:1;fill-rule:evenodd;stroke:none;stroke-width:1" /></g></clipPath></defs><sodipodi:namedview
     pagecolor="#ffffff"
     bordercolor="#666666"
     borderopacity="1"
     objecttolerance="10"
     gridtolerance="10"
     guidetolerance="10"
     inkscape:pageopacity="0"
     inkscape:pageshadow="2"
     inkscape:window-width="1916"
     inkscape:window-height="1041"
     id="namedview7"
     showgrid="false"
     fit-margin-top="0"
     fit-margin-left="0"
     fit-margin-right="0"
     fit-margin-bottom="0"
     inkscape:zoom="2.9366666"
     inkscape:cx="50.037048"
     inkscape:cy="68.03955"
     inkscape:window-x="1280"
     inkscape:window-y="18"
     inkscape:window-maximized="0"
     inkscape:current-layer="Ebene_1" /><title
     id="title3">Rounded Corners</title><rect
     style="opacity:1;fill:#171f26;fill-opacity:1;stroke:none;stroke-opacity:1"
     id="rect4225"
     width="200"
     height="200"
     x="0"
     y="1.335144e-05" /><rect
     style="opacity:1;fill:#ffffff;fill-opacity:1;stroke:none;stroke-opacity:1"
     id="rect4147"
     width="300"
     height="300"
     x="0"
     y="0"
     clip-path="url(#clipPath4192)"
     transform="translate(-50,-25.072)" /><g
     inkscape:groupmode="layer"
     id="layer1"
     inkscape:label="Icon"
     style="display:inline"
     transform="translate(-55,-70.600006)" /></svg>