<?xml version="1.0" encoding="UTF-8" standalone="no"?>
<!-- Created with Inkscape (http://www.inkscape.org/) -->
<svg id="svg5828" xmlns:sketch="http://www.bohemiancoding.com/sketch/ns" xmlns:rdf="http://www.w3.org/1999/02/22-rdf-syntax-ns#" xmlns="http://www.w3.org/2000/svg" height="68.075mm" width="68.075mm" version="1.1" xmlns:cc="http://creativecommons.org/ns#" viewBox="0 0 241.20965 241.20965" xmlns:dc="http://purl.org/dc/elements/1.1/">
 <metadata id="metadata5833">
  <rdf:RDF>
   <cc:Work rdf:about="">
    <dc:format>image/svg+xml</dc:format>
    <dc:type rdf:resource="http://purl.org/dc/dcmitype/StillImage"/>
    <dc:title/>
   </cc:Work>
  </rdf:RDF>
 </metadata>
 <g id="layer1" transform="translate(610.71 395.5)">
  <g id="g5788" style="fill:#fff" transform="translate(-640.11 -422.79)">
   <path id="path14" style="fill:#fff;fill-rule:evenodd" sketch:type="MSShapeGroup" d="m232.53 147.73 2.5906-8.9731-9.4519-1.4177c0.32359 0.0486 0.57055 0.13982 0.71378 0.22496-0.0411-0.0244-0.1703-0.1315-0.36244-0.33851-0.69401-0.74767-1.4761-2.0342-2.2005-3.7611-1.756-4.1863-2.8094-10.022-2.8094-16.327 0-5.2227 0.72043-10.143 1.9954-14.111 1.0588-3.295 2.3827-5.5296 3.3389-6.2866l4.9155-3.8918-2.4422-5.6953c-9.03-21.07-25.86-37.791-46.73-46.325l-8.2757-3.3843-2.9832 8.2504c-0.0235-0.08408-0.24572 0.12597-0.57204 0.37347-0.93393 0.70835-2.3582 1.4493-4.1747 2.1168-4.2598 1.5653-9.9627 2.4852-16.089 2.4852-6.0146 0-11.624-0.88639-15.865-2.4042-1.8253-0.65315-3.2771-1.3837-4.2597-2.0953-0.36033-0.26096-0.61797-0.49094-0.77466-0.66939-0.0414-0.04719-3.2821-7.6252-3.2821-7.6252l-7.8722 3.3268c-20.676 8.74-37.268 25.549-46.1 46.61l-2.1686 5.1714 4.1206 3.8831c2.7157 2.5591 5.1932 10.753 5.1932 20.274 0 6.0332-0.96358 11.644-2.5973 15.805-0.69281 1.7645-1.4584 3.1362-2.1817 4.0182-0.24475 0.29847-0.44699 0.49502-0.5833 0.59597 0.01946-0.0145-7.4776 2.2679-7.4776 2.2679l2.197 7.6843c4.5115 15.78 13.266 29.92 25.18 40.844l1.7214 1.5784 2.3112 0.48104c21.154 4.4028 35.969 6.4902 52.916 6.4902s31.762-2.0874 52.916-6.4902l2.3112-0.48104 1.7214-1.5784c11.858-10.873 20.586-24.931 25.116-40.622zm-82.064 38.142c-15.483 0-46.474-7.8586-47.042-8.4218-9.2171-9.14-19.012-26.904-17.011-29.016 6.1917-6.5364 9.4991-18.284 9.4991-31.297 0-13.564-7.1752-25.813-6.4394-27.192 8.5581-16.038 27.303-32.844 29.659-31.01 6.8937 5.365 18.31 8.2342 30.865 8.2342 17.668 0 29.347-9.3703 31.278-8.2196 15.241 9.0839 30.968 28.326 29.759 30.153-4.5007 6.8025-6.9524 16.997-6.9524 28.034 0 18.634 10.935 30.029 10.209 31.93-3.7103 9.7062-9.4368 21.188-16.742 28.358-0.56789 0.55736-31.597 8.4469-47.08 8.4469zm42.327-59.567c0-22.786-18.95-41.258-42.327-41.258-23.376 0-42.327 18.472-42.327 41.258s18.95 41.258 42.327 41.258c23.376 0 42.327-18.472 42.327-41.258zm-67.723 0c0-13.672 11.37-24.755 25.396-24.755s25.396 11.083 25.396 24.755-11.37 24.755-25.396 24.755-25.396-11.083-25.396-24.755z"/>
   <path id="path16" style="fill:#fff;fill-rule:evenodd" sketch:type="MSShapeGroup" d="m245 117.14c0-19.092-7.2403-35.298-19.752-35.298s-19.752 16.206-19.752 35.298 7.2403 35.298 19.752 35.298 19.752-16.206 19.752-35.298zm-19.311 21.621c-0.0771-0.0353-0.23973-0.14855-0.46868-0.3653-0.78514-0.7433-1.6675-2.0776-2.4834-3.9039-1.9545-4.3748-3.1325-10.608-3.1325-17.352 0-6.7434 1.178-12.977 3.1325-17.352 0.81594-1.8263 1.6983-3.1606 2.4834-3.9039 0.22895-0.21674 0.39162-0.33 0.46868-0.3653-0.083 0.03804-0.24736 0.0754-0.44102 0.0754-0.19365 0-0.35799-0.03735-0.44103-0.0754 0.0771 0.0353 0.23973 0.14854 0.46869 0.3653 0.78513 0.74331 1.6675 2.0776 2.4834 3.9039 1.9545 4.3748 3.1325 10.608 3.1325 17.352 0 6.7434-1.178 12.977-3.1325 17.352-0.81594 1.8263-1.6983 3.1606-2.4834 3.9039-0.22895 0.21674-0.39163 0.33-0.46869 0.3653 0.083-0.038 0.24737-0.0754 0.44103-0.0754 0.19364 0 0.35799 0.0374 0.44102 0.0754z"/>
   <path id="path18" style="fill:#fff;fill-rule:evenodd" sketch:type="MSShapeGroup" d="m94.505 117.14c0-19.092-7.2403-35.298-19.752-35.298-12.513 0-19.753 16.206-19.753 35.298s7.2403 35.298 19.752 35.298 19.752-16.206 19.752-35.298zm-19.311 21.621c-0.07706-0.0353-0.23974-0.14855-0.46868-0.3653-0.78514-0.7433-1.6675-2.0776-2.4834-3.9039-1.9545-4.3748-3.1325-10.608-3.1325-17.352 0-6.7434 1.178-12.977 3.1325-17.352 0.81594-1.8263 1.6983-3.1606 2.4834-3.9039 0.22894-0.21674 0.39163-0.33 0.46868-0.3653-0.08304 0.03804-0.24737 0.0754-0.44102 0.0754s-0.35799-0.03735-0.44102-0.0754c0.07706 0.0353 0.23974 0.14854 0.46868 0.3653 0.78514 0.74331 1.6675 2.0776 2.4834 3.9039 1.9545 4.3748 3.1325 10.608 3.1325 17.352 0 6.7434-1.178 12.977-3.1325 17.352-0.81594 1.8263-1.6983 3.1606-2.4834 3.9039-0.22894 0.21674-0.39163 0.33-0.46868 0.3653 0.08303-0.038 0.24737-0.0754 0.44102-0.0754s0.35799 0.0374 0.44102 0.0754z"/>
   <path id="path20" style="fill:#fff;fill-rule:evenodd" sketch:type="MSShapeGroup" d="m150 27.29c-19.587 0-36.213 7.0574-36.213 19.254 0 12.196 16.626 19.254 36.213 19.254s36.213-7.0574 36.213-19.254c0-12.196-16.626-19.254-36.213-19.254zm22.181 18.824c-0.0362 0.07511-0.1524 0.23369-0.37476 0.45684-0.76256 0.76531-2.1314 1.6254-4.005 2.4207-4.4881 1.9051-10.883 3.0534-17.802 3.0534-6.9181 0-13.313-1.1482-17.802-3.0534-1.8736-0.79533-3.2425-1.6554-4.005-2.4207-0.22235-0.22316-0.33855-0.38174-0.37476-0.45684 0.039 0.08094 0.0773 0.24112 0.0773 0.42988s-0.0383 0.34895-0.0773 0.42988c0.0362-0.07511 0.1524-0.23369 0.37476-0.45684 0.76257-0.76531 2.1314-1.6254 4.005-2.4207 4.4882-1.9051 10.883-3.0534 17.802-3.0534 6.9181 0 13.313 1.1482 17.802 3.0534 1.8736 0.79533 3.2425 1.6554 4.005 2.4207 0.22235 0.22316 0.33856 0.38174 0.37476 0.45684-0.039-0.08094-0.0773-0.24112-0.0773-0.42988s0.0383-0.34895 0.0773-0.42988z"/>
   <path id="path22" style="fill:#fff;fill-rule:evenodd" d="m224.74 229.33c10.495-16.339 14.618-33.107 14.618-44.385 0-5.1264-3.0284-9.182-7.9086-10.824-2.976-1.0012-6.3226-1.0854-10.665-0.6014-3.0863 0.34398-6.6211 0.96834-11.883 2.0447-0.51671 0.10569-11.052 2.3149-14.482 2.9977-16.615 3.3076-30.05 5.0076-43.948 5.0076s-27.333-1.7-43.948-5.0076c-3.4295-0.68273-13.965-2.892-14.482-2.9977-5.2618-1.0763-8.7966-1.7007-11.883-2.0447-4.3425-0.48399-7.6891-0.39977-10.665 0.6014-4.8801 1.6418-7.9086 5.6974-7.9086 10.824 0 11.278 4.1231 28.047 14.618 44.385 15.703 24.46 41.71 39.17 74.26 39.17 32.555 0 58.557-14.714 74.268-39.172zm-134.98-8.27c-4.9423-7.694-8.702-16.265-11.245-24.89-1.8895-6.409-1.4167-7.303-0.16898-7.1639 2.4644 0.27468 5.6076 0.82985 10.415 1.8133 0.44249 0.0905 11.038 2.3124 14.566 3.0147 17.577 3.4992 31.989 5.3228 47.148 5.3228 15.158 0 29.571-1.8236 47.148-5.3228 3.5281-0.70235 14.124-2.9242 14.566-3.0147 4.8077-0.98344 7.9508-1.5386 10.415-1.8133 1.2477-0.13908 1.7206 0.75484-0.16898 7.1639-2.5429 8.6251-6.3026 17.196-11.245 24.89-12.946 20.154-34.037 31.858-60.715 31.858s-47.769-11.703-60.715-31.858z" sketch:type="MSShapeGroup"/>
  </g>
 </g>
</svg>
