<?xml version="1.0" encoding="UTF-8" standalone="no"?>
<svg
   xmlns:dc="http://purl.org/dc/elements/1.1/"
   xmlns:cc="http://creativecommons.org/ns#"
   xmlns:rdf="http://www.w3.org/1999/02/22-rdf-syntax-ns#"
   xmlns:svg="http://www.w3.org/2000/svg"
   xmlns="http://www.w3.org/2000/svg"
   height="89.900002"
   width="53.965687"
   id="svg4450"
   xml:space="preserve"
   viewBox="0 0 53.965687 89.900002"
   y="0px"
   x="0px"
   version="1.1"><metadata
     id="metadata4468"><rdf:RDF><cc:Work
         rdf:about=""><dc:format>image/svg+xml</dc:format><dc:type
           rdf:resource="http://purl.org/dc/dcmitype/StillImage" /><dc:title></dc:title></cc:Work></rdf:RDF></metadata><defs
     id="defs4466" /><style
     id="style4452"
     type="text/css">
	.st0{fill:none;stroke:#000000;stroke-width:5;stroke-linejoin:round;stroke-miterlimit:10;}
	.st1{fill:#FFFFFF;}
	.st2{fill:#FFFFFF;stroke:#000000;stroke-linejoin:round;stroke-miterlimit:10;}
	.st3{fill:#FFFFFF;stroke:#000000;stroke-width:2;stroke-linejoin:round;stroke-miterlimit:10;}
	.st4{fill:none;stroke:#000000;stroke-width:2;stroke-linecap:round;stroke-miterlimit:10;}
	.st5{fill:none;stroke:#000000;stroke-width:2;stroke-linejoin:round;stroke-miterlimit:10;}
	.st6{fill:none;stroke:#000000;stroke-linejoin:round;stroke-miterlimit:10;}
</style><g
     transform="translate(-21.534315,-4.8)"
     id="g4454"><path
       style="stroke:none;stroke-opacity:1;fill:#ffffff;fill-opacity:1"
       id="path4456"
       d="m 74.7,59.7 c 0,-1.9 -0.4,-3.8 -1.2,-5.6 l -0.7,-1.5 2.7,-29.3 c 0,-0.2 -0.1,-0.5 -0.2,-0.7 -0.2,-0.2 -0.4,-0.3 -0.6,-0.3 l -1.6,-0.1 c -2.3,-0.2 -4.5,0.7 -6,2.3 l -1.6,-9.7 c 0,-0.2 -0.2,-0.5 -0.4,-0.6 C 64.8,14 64.6,14 64.3,14 l -1.8,0.3 c -2.2,0.4 -4.2,1.6 -5.5,3.4 -0.1,0.1 -0.1,0.2 -0.2,0.3 L 51.6,6.5 C 51.3,5.8 50.7,5.3 50,5 49.7,4.9 49.4,4.8 49,4.8 48.6,4.8 48.2,4.9 47.8,5.1 L 45.9,6 C 43.1,7.3 41,9.5 40,12.4 c -1.1,2.8 -0.9,5.9 0.3,8.7 l 3.3,7.2 c -8.3,0.7 -16,5.7 -19.8,13.2 -1.2,2.3 -1.1,5 0.1,7.3 0.1,0.2 0.2,0.4 0.4,0.6 -1.4,1.2 -2.4,2.9 -2.7,4.9 -0.1,0.9 -0.1,1.8 0.1,2.6 1.5,8.2 7.3,15.1 15.1,18.1 0.1,0 0.2,0.1 0.2,0.1 l 6.9,2 c 0.8,0.2 1.3,1 1.3,1.8 l 0,13.2 c 0,1.6 1.3,2.6 2.9,2.6 l 23.9,0 c 1.6,0 2.6,-1.1 2.6,-2.7 l 0.1,-32.3 z m -1.8,-35.6 0.6,0.1 -2.3,24.7 -3.7,-21.7 c 1,-2.1 3,-3.4 5.4,-3.1 z M 58.6,18.8 c 1,-1.4 2.5,-2.4 4.2,-2.7 l 0.9,-0.2 4.6,27 -10.4,-22.7 c 0.1,-0.5 0.4,-0.9 0.7,-1.4 z m 13.2,73 -23.5,0 0,-12.9 c 0,-2.1 -1.4,-3.9 -3.5,-4.5 l -7,-2 c -7,-2.7 -12,-8.8 -13.4,-16 -0.1,-0.6 -0.1,-1.1 0,-1.7 0.4,-2.5 2.6,-4.5 5.2,-4.5 0.2,0 0.5,0 0.7,0.1 -3.5,-0.5 -5.6,-4.3 -4,-7.5 3.6,-7 10.9,-11.7 19,-11.8 3.3,0.1 6.5,0.9 9.4,2.4 0.1,0.1 0.3,0.1 0.4,0.1 0.3,0 0.7,-0.2 0.8,-0.5 C 56.1,32.5 56,32 55.5,31.7 52.9,30.3 50,29.4 47,29.2 l -4.3,-9.4 c -2,-4.3 -0.1,-9.4 4.2,-11.3 L 49,7.7 70.8,55.3 c 0.6,1.4 1,2.8 1,4.3 l 0,32.2 z" /><path
       style="fill:#ffffff;fill-opacity:1"
       id="path4458"
       d="m 35,54.6 c 0.8,4.5 4.4,7.8 9.1,8.5 0.6,0.1 1.1,0.1 1.7,0.1 5.2,0 9.6,-3.5 10.4,-9.2 0.9,-6.4 -3.3,-11.3 -9.1,-12.1 -0.6,-0.1 -1.1,-0.1 -1.7,-0.1 -4,0 -7.6,2.1 -9.4,5.8 -0.5,1 -1.3,1.8 -2.3,2.3 -0.8,0.4 -1.6,0.6 -2.5,0.6 -0.3,0 -0.5,0 -0.8,-0.1 2.2,0.2 4.2,1.9 4.6,4.2 z m 3.5,-5.9 c 1.3,-2.6 3.8,-4.2 6.9,-4.2 0.4,0 0.8,0 1.3,0.1 2.2,0.3 4,1.3 5.2,2.9 1.3,1.6 1.8,3.7 1.5,6 -0.6,4.1 -3.6,6.8 -7.6,6.8 -0.4,0 -0.8,0 -1.3,-0.1 C 41,59.7 38.4,57.3 37.8,54 37.6,52.9 37.2,52 36.7,51.1 37.4,50.5 38,49.7 38.5,48.7 Z" /></g></svg>