<?xml version="1.0" standalone="no"?>
<!DOCTYPE svg PUBLIC "-//W3C//DTD SVG 20010904//EN"
 "http://www.w3.org/TR/2001/REC-SVG-20010904/DTD/svg10.dtd">
<svg version="1.0" xmlns="http://www.w3.org/2000/svg"
 width="16.000000pt" height="16.000000pt" viewBox="0 0 16.000000 16.000000"
 preserveAspectRatio="xMidYMid meet">
<metadata>
Created by potrace 1.11, written by Peter Selinger 2001-2013
</metadata>
<g transform="translate(0.000000,16.000000) scale(0.002286,-0.002286)"
fill="#000000" stroke="none">
<path d="M3298 6995 c-1 -1 -41 -5 -88 -9 -79 -6 -268 -29 -316 -40 -12 -2
-38 -7 -59 -10 -20 -4 -40 -8 -44 -10 -3 -2 -24 -7 -46 -10 -128 -20 -488
-135 -598 -192 -16 -8 -33 -14 -38 -14 -12 0 -267 -126 -335 -166 -64 -37
-261 -161 -277 -174 -7 -6 -61 -47 -122 -92 -60 -46 -112 -85 -115 -89 -3 -3
-36 -33 -75 -66 -143 -123 -353 -349 -476 -513 -235 -313 -408 -644 -530
-1011 -26 -81 -51 -158 -53 -170 -3 -13 -12 -51 -21 -84 -8 -33 -18 -76 -21
-95 -3 -19 -7 -37 -9 -40 -5 -7 -34 -174 -41 -232 -3 -24 -7 -59 -10 -78 -28
-193 -25 -631 5 -846 20 -139 23 -154 66 -364 2 -8 9 -35 16 -60 7 -25 13 -51
15 -58 9 -48 85 -270 131 -382 184 -454 460 -865 808 -1201 92 -89 162 -151
228 -204 21 -16 44 -34 50 -40 24 -20 163 -121 202 -146 78 -52 181 -116 225
-141 60 -34 305 -158 313 -158 4 0 30 -11 59 -24 95 -43 240 -94 384 -136 165
-48 367 -91 499 -105 28 -3 56 -8 64 -11 74 -25 640 -25 821 1 14 2 48 6 75
10 43 6 184 31 280 50 62 12 224 58 338 96 847 281 1554 875 1977 1660 114
213 207 437 274 665 35 118 79 301 90 380 4 22 9 51 11 64 3 14 13 84 22 155
24 188 23 692 -2 810 -2 11 -7 41 -10 67 -47 398 -210 872 -435 1268 -47 84
-200 315 -227 345 -10 11 -37 45 -60 76 -23 31 -47 62 -55 70 -7 8 -38 43 -68
78 -180 209 -466 455 -715 616 -450 290 -976 480 -1495 540 -30 4 -68 8 -85
11 -35 5 -522 14 -527 9z m-277 -2108 c101 -176 195 -338 208 -360 13 -23 39
-69 58 -102 20 -33 44 -74 53 -91 10 -16 39 -68 65 -115 86 -150 84 -148 107
-101 14 26 353 615 448 777 26 44 77 132 114 196 l66 116 349 0 c316 0 349 -1
343 -16 -7 -16 -83 -151 -102 -181 -6 -8 -55 -94 -110 -190 -55 -96 -104 -182
-110 -190 -5 -8 -26 -44 -46 -80 -21 -36 -145 -251 -277 -479 -132 -228 -251
-435 -265 -460 -14 -25 -36 -64 -50 -86 -14 -22 -25 -45 -25 -51 0 -10 74
-144 123 -224 35 -56 290 -504 290 -508 0 -3 6 -13 14 -21 7 -9 29 -45 48 -81
20 -36 57 -100 82 -143 25 -43 46 -79 46 -81 0 -2 17 -33 38 -67 46 -75 288
-494 343 -592 l38 -67 -352 2 -352 3 -82 140 c-46 77 -86 147 -90 155 -3 8
-55 98 -114 200 -58 102 -116 202 -128 222 -11 21 -29 53 -40 70 -162 281
-211 363 -218 365 -4 2 -24 -25 -43 -59 -19 -35 -47 -83 -62 -108 -15 -25 -33
-56 -41 -70 -33 -61 -500 -869 -524 -908 -6 -10 -82 -12 -355 -10 l-347 3 280
485 c155 267 293 508 309 535 15 28 55 96 89 153 34 57 61 106 61 109 0 3 8
17 19 31 10 15 31 50 46 77 39 70 94 167 105 185 58 94 110 190 110 203 0 9
-22 54 -49 99 -27 46 -58 99 -68 118 -19 34 -92 158 -212 360 -31 52 -64 108
-74 125 -10 16 -20 38 -23 48 -4 9 -10 17 -15 17 -5 0 -9 4 -9 10 0 5 -21 44
-46 87 -26 43 -54 92 -64 108 -56 96 -270 462 -344 589 -48 82 -90 154 -92
160 -3 8 89 11 344 11 l349 0 184 -318z"/>
</g>
</svg>
