<?xml version="1.0" standalone="no"?>
<!DOCTYPE svg PUBLIC "-//W3C//DTD SVG 20010904//EN"
 "http://www.w3.org/TR/2001/REC-SVG-20010904/DTD/svg10.dtd">
<svg version="1.0" xmlns="http://www.w3.org/2000/svg"
 width="16.000000pt" height="16.000000pt" viewBox="0 0 16.000000 16.000000"
 preserveAspectRatio="xMidYMid meet">
<metadata>
Created by potrace 1.11, written by Peter Selinger 2001-2013
</metadata>
<g transform="translate(0.000000,16.000000) scale(0.002286,-0.002286)"
fill="#000000" stroke="none">
<path d="M3338 6995 c-2 -1 -34 -5 -73 -8 -214 -19 -465 -98 -599 -189 -83
-57 -165 -150 -188 -214 -11 -30 -28 -43 -128 -95 -63 -34 -117 -65 -120 -69
-3 -4 -16 -13 -30 -20 -14 -7 -56 -36 -95 -64 -302 -217 -552 -493 -730 -806
-64 -113 -66 -116 -103 -118 -83 -5 -165 -45 -240 -116 -176 -166 -277 -466
-286 -851 -8 -375 72 -693 227 -894 40 -52 138 -133 175 -145 10 -4 28 -37 46
-84 60 -164 194 -428 263 -518 34 -45 30 -51 -30 -44 -214 23 -390 -47 -456
-184 -42 -87 -46 -166 -16 -406 1 -8 5 -28 8 -45 4 -16 9 -46 12 -65 8 -48 40
-166 77 -280 87 -271 250 -580 431 -820 141 -187 380 -409 587 -546 251 -167
556 -294 850 -353 30 -6 66 -14 80 -16 130 -27 293 -39 515 -40 213 0 307 7
475 36 153 26 144 24 235 48 332 86 647 243 915 458 78 62 260 237 320 308 88
104 260 351 260 374 0 6 3 11 8 11 4 0 12 10 18 23 110 216 154 308 154 319 0
8 4 18 9 23 12 13 75 195 106 305 20 73 32 130 60 275 3 17 8 91 12 165 5 121
3 141 -16 190 -63 167 -228 243 -473 220 -32 -3 -58 -4 -58 -2 0 2 11 18 24
35 78 103 266 486 290 589 3 15 20 35 41 48 74 46 160 145 212 245 31 60 88
212 98 263 61 301 66 583 15 827 -29 142 -39 174 -77 265 -89 212 -232 352
-383 378 -40 7 -46 12 -73 62 -78 143 -229 362 -318 460 -153 169 -296 299
-454 412 -68 48 -269 168 -331 197 -38 17 -56 33 -68 59 -91 190 -363 333
-726 383 -73 10 -443 22 -452 14z m392 -410 c92 -12 240 -53 309 -86 63 -29
65 -31 46 -46 -51 -39 -215 -95 -320 -109 -27 -3 -70 -9 -95 -13 -53 -9 -304
-6 -375 3 -150 20 -319 72 -374 115 l-25 19 45 22 c46 24 179 72 179 65 0 -3
11 0 25 5 30 12 61 17 135 26 30 3 56 7 58 9 6 5 340 -3 392 -10z m-1080 -535
c111 -76 284 -139 479 -175 162 -30 429 -39 556 -18 44 7 97 15 118 18 21 4
82 19 135 35 90 27 156 52 369 143 90 38 83 39 173 -18 24 -15 51 -34 58 -42
7 -7 17 -13 20 -13 4 0 18 -10 32 -22 14 -13 59 -50 100 -83 182 -144 495
-485 560 -609 l25 -47 -42 -77 c-54 -101 -107 -263 -135 -409 -29 -160 -32
-465 -5 -593 41 -193 109 -367 214 -547 29 -50 54 -102 54 -115 1 -12 -19 -71
-44 -129 -118 -278 -251 -500 -392 -657 -41 -46 -50 -50 -142 -75 -54 -14
-125 -31 -158 -37 -187 -34 -258 -45 -485 -75 -30 -4 -71 -9 -90 -10 -79 -7
-188 -16 -235 -21 -60 -6 -567 -6 -610 0 -17 3 -67 7 -111 10 -44 4 -96 8
-115 10 -19 3 -61 7 -94 10 -33 4 -71 9 -85 11 -30 6 -59 10 -165 25 -86 12
-262 44 -335 61 -123 28 -150 40 -194 87 -167 177 -374 503 -442 695 -22 63
-18 91 24 144 40 52 92 129 92 138 0 3 9 24 19 48 37 79 51 121 71 196 18 74
22 89 34 161 3 19 9 49 12 65 9 51 13 359 4 406 -5 24 -11 64 -15 89 -11 79
-37 171 -88 315 -27 77 -55 162 -63 188 l-13 49 46 76 c52 86 163 241 226 316
92 110 116 136 237 256 126 124 213 195 292 237 43 23 51 22 108 -17z m-1325
-1120 c23 -37 67 -154 79 -210 3 -14 7 -36 10 -50 14 -61 20 -155 20 -280 0
-122 -2 -157 -20 -270 -15 -101 -90 -293 -119 -304 -20 -7 -85 146 -110 259
-38 170 -38 510 1 637 3 9 7 26 9 37 3 12 7 29 9 39 14 58 73 182 88 182 4 0
19 -18 33 -40z m4425 -25 c31 -64 64 -177 75 -257 3 -24 9 -56 12 -73 15 -84
9 -302 -12 -444 -16 -106 -85 -298 -114 -316 -28 -17 -109 197 -133 350 -15
92 -17 363 -4 440 30 172 100 365 132 365 7 0 27 -29 44 -65z m-4255 -2610
c45 -5 286 -52 610 -119 66 -14 134 -27 150 -30 17 -2 53 -9 80 -14 28 -6 68
-13 90 -16 23 -4 50 -8 60 -10 24 -4 100 -16 135 -21 14 -2 43 -6 65 -9 22 -3
60 -8 85 -11 25 -3 52 -8 60 -10 8 -2 53 -7 100 -11 47 -3 101 -8 120 -10 229
-23 740 -23 930 0 19 3 71 7 115 11 44 3 105 10 135 15 30 5 80 12 110 15 30
3 62 8 71 11 9 2 36 6 60 9 24 2 69 9 99 15 30 6 71 13 90 16 19 3 105 19 190
36 194 37 167 32 290 58 114 24 132 28 170 35 14 3 36 7 50 10 27 6 34 7 165
29 114 20 119 16 104 -74 -27 -168 -182 -563 -286 -728 -18 -29 -33 -55 -33
-58 0 -8 -76 -119 -139 -204 -68 -91 -252 -279 -341 -347 -264 -204 -555 -332
-892 -393 -226 -41 -552 -47 -768 -14 -846 127 -1433 660 -1725 1567 -66 204
-70 278 -15 262 8 -2 38 -6 65 -10z"/>
<path d="M3423 5319 c-127 -12 -268 -41 -340 -71 -199 -83 -315 -159 -448
-291 -179 -180 -288 -385 -331 -624 -16 -91 -21 -280 -9 -355 4 -24 9 -56 11
-73 9 -57 56 -200 91 -275 166 -357 518 -619 918 -685 71 -12 300 -15 356 -5
30 5 71 11 91 14 61 9 229 66 303 104 242 121 441 320 555 556 50 103 94 240
108 331 14 98 7 335 -12 420 -92 404 -359 717 -740 869 -133 53 -247 76 -441
90 -16 1 -67 -2 -112 -5z m200 -483 c234 -33 454 -192 554 -403 54 -111 72
-199 68 -328 -5 -192 -69 -339 -210 -480 -131 -131 -292 -202 -480 -212 -89
-5 -123 -2 -243 23 -12 2 -44 13 -70 23 -282 111 -469 384 -463 676 0 39 3 81
6 95 14 73 18 89 36 140 86 239 326 432 578 464 18 3 35 6 36 8 6 6 135 1 188
-6z"/>
</g>
</svg>
